<svg width="64" height="64" viewBox="0 0 64 64" fill="none" xmlns="http://www.w3.org/2000/svg">
<rect width="64" height="64" rx="8" fill="#FFCB3D" fill-opacity="0.2"/>
<path opacity="0.2" d="M26.4494 31.5024C27.746 34.1533 29.8948 36.2922 32.5515 37.5768C32.7459 37.6689 32.9609 37.7088 33.1754 37.6926C33.3899 37.6763 33.5964 37.6045 33.7747 37.4842L37.6866 34.8757C37.8596 34.7604 38.0586 34.69 38.2657 34.671C38.4728 34.6519 38.6813 34.6849 38.8724 34.7668L46.1907 37.9032C46.4393 38.0088 46.6469 38.1923 46.7821 38.4262C46.9173 38.66 46.9729 38.9314 46.9405 39.1996C46.7092 41.0096 45.826 42.6732 44.4564 43.879C43.0869 45.0847 41.3247 45.7499 39.5 45.75C33.8641 45.75 28.4591 43.5112 24.474 39.526C20.4888 35.5409 18.25 30.1359 18.25 24.5C18.2501 22.6753 18.9153 20.9132 20.1211 19.5436C21.3268 18.174 22.9905 17.2909 24.8005 17.0596C25.0686 17.0271 25.34 17.0827 25.5739 17.2179C25.8077 17.3531 25.9912 17.5607 26.0968 17.8093L29.236 25.134C29.3172 25.3234 29.3502 25.53 29.3323 25.7353C29.3143 25.9407 29.2458 26.1384 29.1329 26.3109L26.5335 30.2827C26.4152 30.4614 26.3453 30.6677 26.3305 30.8815C26.3158 31.0952 26.3567 31.3092 26.4494 31.5024V31.5024Z" fill="#FFCB3D"/>
<path d="M26.4494 31.5024C27.746 34.1533 29.8948 36.2922 32.5515 37.5768C32.7459 37.6689 32.9609 37.7088 33.1754 37.6926C33.3899 37.6763 33.5964 37.6045 33.7747 37.4842L37.6866 34.8757C37.8596 34.7604 38.0586 34.69 38.2657 34.671C38.4728 34.6519 38.6813 34.6849 38.8724 34.7668L46.1907 37.9032C46.4393 38.0088 46.6469 38.1923 46.7821 38.4262C46.9173 38.66 46.9729 38.9314 46.9405 39.1996C46.7092 41.0096 45.826 42.6732 44.4564 43.879C43.0869 45.0847 41.3247 45.7499 39.5 45.75C33.8641 45.75 28.4591 43.5112 24.474 39.526C20.4888 35.5409 18.25 30.1359 18.25 24.5C18.2501 22.6753 18.9153 20.9132 20.1211 19.5436C21.3268 18.174 22.9905 17.2909 24.8005 17.0596C25.0686 17.0271 25.34 17.0827 25.5739 17.2179C25.8077 17.3531 25.9912 17.5607 26.0968 17.8093L29.236 25.134C29.3172 25.3234 29.3502 25.53 29.3323 25.7353C29.3143 25.9407 29.2458 26.1384 29.1329 26.3109L26.5335 30.2827C26.4152 30.4614 26.3453 30.6677 26.3305 30.8815C26.3158 31.0952 26.3567 31.3092 26.4494 31.5024V31.5024Z" stroke="#FFCB3D" stroke-width="2.5" stroke-linecap="round" stroke-linejoin="round"/>
<path d="M36.9102 18.25C39.0292 18.8199 40.9613 19.9366 42.513 21.4882C44.0646 23.0399 45.1813 24.972 45.7512 27.091" stroke="#FFCB3D" stroke-width="2.5" stroke-linecap="round" stroke-linejoin="round"/>
<path d="M35.6133 23.0808C36.8847 23.4228 38.044 24.0928 38.975 25.0238C39.9059 25.9547 40.576 27.114 40.9179 28.3854" stroke="#FFCB3D" stroke-width="2.5" stroke-linecap="round" stroke-linejoin="round"/>
</svg>
