<svg width="56" height="56" viewBox="0 0 56 56" fill="none" xmlns="http://www.w3.org/2000/svg">
<rect width="56" height="56" rx="8" fill="#1EBD53" fill-opacity="0.2"/>
<path opacity="0.2" d="M14.25 24.6667V15.5C14.25 15.1685 14.3817 14.8505 14.6161 14.6161C14.8505 14.3817 15.1685 14.25 15.5 14.25H40.5C40.8315 14.25 41.1495 14.3817 41.3839 14.6161C41.6183 14.8505 41.75 15.1685 41.75 15.5V24.6667C41.75 37.7941 30.6084 42.1433 28.3838 42.8808C28.1351 42.9664 27.8649 42.9664 27.6162 42.8808C25.3916 42.1433 14.25 37.7941 14.25 24.6667Z" fill="#1EBD53"/>
<path d="M14.25 24.6667V15.5C14.25 15.1685 14.3817 14.8505 14.6161 14.6161C14.8505 14.3817 15.1685 14.25 15.5 14.25H40.5C40.8315 14.25 41.1495 14.3817 41.3839 14.6161C41.6183 14.8505 41.75 15.1685 41.75 15.5V24.6667C41.75 37.7941 30.6084 42.1433 28.3838 42.8808C28.1351 42.9664 27.8649 42.9664 27.6162 42.8808C25.3916 42.1433 14.25 37.7941 14.25 24.6667Z" stroke="#1EBD53" stroke-width="2.5" stroke-linecap="round" stroke-linejoin="round"/>
<path d="M34.875 23L25.7083 31.75L21.125 27.375" stroke="#1EBD53" stroke-width="2.5" stroke-linecap="round" stroke-linejoin="round"/>
</svg>
