<svg width="56" height="56" viewBox="0 0 56 56" fill="none" xmlns="http://www.w3.org/2000/svg">
<rect width="56" height="56" rx="8" fill="#FFCB3D" fill-opacity="0.2"/>
<path opacity="0.2" d="M19.25 23.625H13C12.3096 23.625 11.75 24.1846 11.75 24.875V31.125C11.75 31.8154 12.3096 32.375 13 32.375H19.25C19.9404 32.375 20.5 31.8154 20.5 31.125V24.875C20.5 24.1846 19.9404 23.625 19.25 23.625Z" fill="#FFCB3D"/>
<path opacity="0.2" d="M41.75 14.25H34.25C33.5596 14.25 33 14.8096 33 15.5V23C33 23.6904 33.5596 24.25 34.25 24.25H41.75C42.4404 24.25 43 23.6904 43 23V15.5C43 14.8096 42.4404 14.25 41.75 14.25Z" fill="#FFCB3D"/>
<path opacity="0.2" d="M41.75 31.75H34.25C33.5596 31.75 33 32.3096 33 33V40.5C33 41.1904 33.5596 41.75 34.25 41.75H41.75C42.4404 41.75 43 41.1904 43 40.5V33C43 32.3096 42.4404 31.75 41.75 31.75Z" fill="#FFCB3D"/>
<path d="M19.25 23.625H13C12.3096 23.625 11.75 24.1846 11.75 24.875V31.125C11.75 31.8154 12.3096 32.375 13 32.375H19.25C19.9404 32.375 20.5 31.8154 20.5 31.125V24.875C20.5 24.1846 19.9404 23.625 19.25 23.625Z" stroke="#FFCB3D" stroke-width="2.5" stroke-linecap="round" stroke-linejoin="round"/>
<path d="M41.75 14.25H34.25C33.5596 14.25 33 14.8096 33 15.5V23C33 23.6904 33.5596 24.25 34.25 24.25H41.75C42.4404 24.25 43 23.6904 43 23V15.5C43 14.8096 42.4404 14.25 41.75 14.25Z" stroke="#FFCB3D" stroke-width="2.5" stroke-linecap="round" stroke-linejoin="round"/>
<path d="M41.75 31.75H34.25C33.5596 31.75 33 32.3096 33 33V40.5C33 41.1904 33.5596 41.75 34.25 41.75H41.75C42.4404 41.75 43 41.1904 43 40.5V33C43 32.3096 42.4404 31.75 41.75 31.75Z" stroke="#FFCB3D" stroke-width="2.5" stroke-linecap="round" stroke-linejoin="round"/>
<path d="M20.5 28H26.75" stroke="#FFCB3D" stroke-width="2.5" stroke-linecap="round" stroke-linejoin="round"/>
<path d="M33 36.75H30.5C29.5054 36.75 28.5516 36.3549 27.8483 35.6517C27.1451 34.9484 26.75 33.9946 26.75 33V23C26.75 22.0054 27.1451 21.0516 27.8483 20.3483C28.5516 19.6451 29.5054 19.25 30.5 19.25H33" stroke="#FFCB3D" stroke-width="2.5" stroke-linecap="round" stroke-linejoin="round"/>
</svg>
