<svg viewBox="0 0 24 24" xmlns="http://www.w3.org/2000/svg"><g fill="#FAAB78"><path d="M3.8 2.35c.04.71.65 1.26 1.37 1.22 .71-.05 1.26-.66 1.22-1.38C6.34 1.47 5.73.92 5.01.96c-.13 0-.25.03-.36.07l.33.94v-1h-1c-1.66 0-3 1.34-3 3v5c0 3.86 3.13 7 7 7 3.86 0 7-3.14 7-7v-5c0-1.66-1.35-3-3-3h-1c-.27-.001-.52.1-.71.29 -.48.47-.48 1.24 0 1.71 .47.47 1.24.47 1.71-.001 .39-.4.39-1.03 0-1.42 -.4-.4-1.03-.4-1.42-.001 .3-.31.8-.31 1.11-.001 .3.3.3.8 0 1.11l-.71-.71v1h1c.55 0 1 .44 1 1v5c0 2.76-2.24 5-5 5 -2.77 0-5-2.24-5-5v-5c0-.56.44-1 1-1h1c.11 0 .22-.02.33-.06 -.07.02-.13.03-.2.03 -.39.02-.72-.28-.74-.66 -.03-.39.27-.72.65-.74 .38-.03.71.27.73.65 -.04-.56-.51-.98-1.06-.95 -.56.03-.98.5-.95 1.05Z"/><path d="M7 15v1c0 3.86 3.13 7 7 7 3.86 0 7-3.14 7-7v-4c0-.56-.45-1-1-1 -.56 0-1 .44-1 1v4c0 2.76-2.24 5-5 5 -2.77 0-5-2.24-5-5v-1c0-.56-.45-1-1-1 -.56 0-1 .44-1 1Z"/><path d="M21 10c0 .55-.45 1-1 1 -.56 0-1-.45-1-1 0-.56.44-1 1-1 .55 0 1 .44 1 1Zm2 0c0-1.66-1.35-3-3-3 -1.66 0-3 1.34-3 3 0 1.65 1.34 3 3 3 1.65 0 3-1.35 3-3Z"/></g></svg>