<svg viewBox="0 0 24 24" xmlns="http://www.w3.org/2000/svg"><g fill="#D77FA1"><path d="M16.93 16.35l3-8h-1.88l3 8 .33-1.16c-.7.52-1.54.8-2.41.8 -.87 0-1.71-.29-2.41-.81l.33 1.15Zm-1.88-.71c-.16.41-.02.88.33 1.15 1.04.77 2.3 1.19 3.59 1.19s2.55-.42 3.59-1.2c.35-.27.49-.74.33-1.16l-3-8c-.33-.87-1.55-.87-1.88 0l-3 8Z"/><path d="M2.93 16.35l3-8H4.05l3 8 .33-1.16c-.7.52-1.54.8-2.41.8 -.87 0-1.71-.29-2.41-.81l.33 1.15Zm-1.88-.71c-.16.41-.02.88.33 1.15 1.04.77 2.3 1.19 3.59 1.19s2.55-.42 3.59-1.2c.35-.27.49-.74.33-1.16l-3-8c-.33-.87-1.55-.87-1.88 0l-3 8Z"/><path d="M7 22h10c.55 0 1-.45 1-1 0-.56-.45-1-1-1H7c-.56 0-1 .44-1 1 0 .55.44 1 1 1Z"/><path d="M11 3v18c0 .55.44 1 1 1 .55 0 1-.45 1-1V3c0-.56-.45-1-1-1 -.56 0-1 .44-1 1Z"/><path d="M3 8h2c2.01 0 5.07-.92 7.44-2.11h-.9c2.37 1.18 5.43 2.1 7.44 2.1h2c.55 0 1-.45 1-1 0-.56-.45-1-1-1h-2c-1.66 0-4.43-.84-6.56-1.9 -.29-.15-.62-.15-.9 0 -2.13 1.06-4.9 1.89-6.56 1.89h-2c-.56 0-1 .44-1 1 0 .55.44 1 1 1Z"/></g></svg>