<svg width="24" height="24" viewBox="0 0 24 24" fill="none" xmlns="http://www.w3.org/2000/svg">
<path d="M5.2 2.4127L2.2 6.4127C2.07 6.5827 2 6.7927 2 7.0127V18.9879C2 20.6379 3.34 21.9879 5 21.9879H19C20.65 21.9879 22 20.6379 22 18.9879V7.0127C22 6.7927 21.92 6.5827 21.8 6.4127L18.8 2.4127C18.61 2.1527 18.31 2.0127 18 2.0127H6C5.68 2.0127 5.38 2.1527 5.2 2.4127ZM6.8 3.6127L6 4.0127H18L17.2 3.6127L20.2 7.6127L20 7.0127V18.9879C20 19.5379 19.55 19.9879 19 19.9879H5C4.44 19.9879 4 19.5379 4 18.9879V7.0127L3.8 7.6127L6.8 3.6127Z" fill="#F6C6EA"/>
<path d="M3 8.0127H21C21.55 8.0127 22 7.5627 22 7.0127C22 6.4527 21.55 6.0127 21 6.0127H3C2.44 6.0127 2 6.4527 2 7.0127C2 7.5627 2.44 8.0127 3 8.0127Z" fill="#F6C6EA"/>
<path d="M15 11.0127C15 12.6627 13.65 14.0127 12 14.0127C10.34 14.0127 9 12.6627 9 11.0127C9 10.4527 8.55 10.0127 8 10.0127C7.44 10.0127 7 10.4527 7 11.0127C7 13.7727 9.23 16.0127 12 16.0127C14.76 16.0127 17 13.7727 17 11.0127C17 10.4527 16.55 10.0127 16 10.0127C15.44 10.0127 15 10.4527 15 11.0127Z" fill="#F6C6EA"/>
</svg>
