<svg width="24" height="24" viewBox="0 0 24 24" fill="none" xmlns="http://www.w3.org/2000/svg">
<g clip-path="url(#clip0_333_25958)">
<path d="M21.8197 9.69931V16.2403C21.8197 16.8399 22.2993 17.3305 22.9098 17.3305C23.5094 17.3305 24 16.8399 24 16.2403V9.69931C24 9.08882 23.5094 8.60915 22.9098 8.60915C22.2993 8.60915 21.8197 9.08882 21.8197 9.69931ZM1.58619 10.6696L12.4878 5.21873H11.5067L22.4084 10.6696V8.71816L11.5067 14.169H12.4769L1.57529 8.71816V10.6587L1.58619 10.6696ZM0.605042 8.71816C-0.201681 9.11062 -0.201681 10.2662 0.605042 10.6587L11.5067 16.1095C11.8119 16.2621 12.1717 16.2621 12.4769 16.1095L23.3786 10.6587C24.1744 10.2553 24.1744 9.09972 23.3786 8.70726L12.4769 3.25643C12.1608 3.09291 11.801 3.09291 11.4958 3.25643L0.59414 8.70726L0.605042 8.71816Z" fill="#1572A1"/>
<path d="M4.37702 11.8805V17.3314C4.37702 17.6148 4.48603 17.8873 4.69316 18.0945C8.38883 21.7901 15.6166 21.7901 19.3123 18.0945C19.5085 17.8873 19.6284 17.6039 19.6284 17.3205V11.8696C19.6284 11.2591 19.1379 10.7795 18.5383 10.7795C17.9278 10.7795 17.4481 11.2591 17.4481 11.8696V17.3205L17.7643 16.5464C14.9189 19.3809 9.06473 19.3809 6.2194 16.5464L6.53554 17.3095V11.8587C6.53554 11.2482 6.04497 10.7686 5.44538 10.7686C4.83489 10.7686 4.35521 11.2482 4.35521 11.8587L4.37702 11.8805Z" fill="#1572A1"/>
</g>
<defs>
<clipPath id="clip0_333_25958">
<rect width="24" height="24" fill="white"/>
</clipPath>
</defs>
</svg>
