<svg width="25" height="24" viewBox="0 0 25 24" fill="none" xmlns="http://www.w3.org/2000/svg">
<path d="M20.4373 3.42857H17.5801V2.71429C17.5801 2.52485 17.5049 2.34316 17.3709 2.20921C17.237 2.07525 17.0553 2 16.8658 2C16.6764 2 16.4947 2.07525 16.3608 2.20921C16.2268 2.34316 16.1516 2.52485 16.1516 2.71429V3.42857H9.0087V2.71429C9.0087 2.52485 8.93344 2.34316 8.79949 2.20921C8.66553 2.07525 8.48385 2 8.29441 2C8.10497 2 7.92329 2.07525 7.78933 2.20921C7.65538 2.34316 7.58012 2.52485 7.58012 2.71429V3.42857H4.72298C4.15466 3.42857 3.60962 3.65434 3.20775 4.0562C2.80589 4.45806 2.58012 5.00311 2.58012 5.57143V19.8571C2.58012 20.4255 2.80589 20.9705 3.20775 21.3724C3.60962 21.7742 4.15466 22 4.72298 22H20.4373C21.0056 22 21.5506 21.7742 21.9525 21.3724C22.3544 20.9705 22.5801 20.4255 22.5801 19.8571V5.57143C22.5801 5.00311 22.3544 4.45806 21.9525 4.0562C21.5506 3.65434 21.0056 3.42857 20.4373 3.42857ZM4.72298 4.85714H20.4373C20.6267 4.85714 20.8084 4.9324 20.9423 5.06635C21.0763 5.20031 21.1516 5.38199 21.1516 5.57143V7.71429H4.0087V5.57143C4.0087 5.38199 4.08395 5.20031 4.2179 5.06635C4.35186 4.9324 4.53354 4.85714 4.72298 4.85714ZM20.4373 20.5714H4.72298C4.53354 20.5714 4.35186 20.4962 4.2179 20.3622C4.08395 20.2283 4.0087 20.0466 4.0087 19.8571V9.14286H21.1516V19.8571C21.1516 20.0466 21.0763 20.2283 20.9423 20.3622C20.8084 20.4962 20.6267 20.5714 20.4373 20.5714Z" fill="#F0E987" stroke="#F0E987" stroke-width="0.5"/>
<path d="M15.3653 12.1688L11.3153 15.6402L9.80719 14.1327C9.68595 14.0156 9.52356 13.9508 9.35501 13.9522C9.18645 13.9537 9.02521 14.0213 8.90602 14.1405C8.78683 14.2597 8.71922 14.4209 8.71776 14.5895C8.71629 14.758 8.78109 14.9204 8.89819 15.0417L10.8268 16.9703C10.9413 17.0846 11.0947 17.1516 11.2564 17.1578C11.4181 17.1639 11.5762 17.1089 11.6991 17.0037L16.1991 13.1465C16.2669 13.0928 16.3231 13.026 16.3644 12.95C16.4057 12.8741 16.4313 12.7906 16.4396 12.7045C16.4478 12.6184 16.4387 12.5316 16.4126 12.4492C16.3866 12.3667 16.3442 12.2904 16.2879 12.2247C16.2317 12.159 16.1628 12.1054 16.0853 12.067C16.0079 12.0285 15.9235 12.0061 15.8372 12.0011C15.7508 11.9961 15.6644 12.0085 15.583 12.0376C15.5016 12.0667 15.4269 12.112 15.3634 12.1707L15.3653 12.1688Z" fill="#F0E987"/>
</svg>
