<svg width="24" height="24" viewBox="0 0 24 24" fill="none" xmlns="http://www.w3.org/2000/svg">
<path d="M13.1452 4.05555H10.8536C10.6428 4.05555 10.4717 3.8913 10.4717 3.68891C10.4717 3.48652 10.6428 3.32227 10.8536 3.32227H13.1452C13.356 3.32227 13.5272 3.48652 13.5272 3.68891C13.5272 3.8913 13.356 4.05555 13.1452 4.05555Z" fill="#B058E6"/>
<path d="M16.2013 23.0007H7.7987C6.74532 23.0007 5.88902 22.1779 5.88902 21.1675V8.7016C5.88902 8.49922 6.06012 8.33496 6.27095 8.33496C6.48178 8.33496 6.65289 8.49922 6.65289 8.7016V21.1675C6.65289 21.7739 7.16697 22.2674 7.7987 22.2674H16.2013C16.833 22.2674 17.3471 21.7739 17.3471 21.1675V8.7016C17.3471 8.49922 17.5182 8.33496 17.729 8.33496C17.9399 8.33496 18.111 8.49922 18.111 8.7016V21.1675C18.111 22.1779 17.2547 23.0007 16.2013 23.0007Z" fill="#B058E6" stroke="#B058E6"/>
<path d="M17.729 11.266C17.5182 11.266 17.3471 11.1017 17.3471 10.8994V2.83321C17.3471 2.22679 16.833 1.73329 16.2013 1.73329H7.7987C7.16697 1.73329 6.65289 2.22679 6.65289 2.83321V10.8994C6.65289 11.1017 6.48178 11.266 6.27095 11.266C6.06012 11.266 5.88902 11.1017 5.88902 10.8994V2.83321C5.88902 1.82275 6.74532 1 7.7987 1H16.2013C17.2547 1 18.111 1.82275 18.111 2.83321V10.8994C18.111 11.1017 17.9399 11.266 17.729 11.266Z" fill="#B058E6" stroke="#B058E6"/>
<path d="M12.3814 19.3838H11.6174C11.2219 19.3838 10.9012 19.7124 10.9012 20.1179C10.9012 20.5233 11.2218 20.8521 11.6174 20.8521H12.3814C12.7769 20.8521 13.0976 20.5234 13.0976 20.1179C13.0976 19.7124 12.7769 19.3838 12.3814 19.3838Z" fill="#B058E6"/>
</svg>
