<svg width="25" height="24" viewBox="0 0 25 24" fill="none" xmlns="http://www.w3.org/2000/svg">
<path d="M15.5881 12.9464L17.5909 13.3439C17.6612 14.4693 18.6306 15.3245 19.756 15.2541C20.8814 15.1838 21.7366 14.2144 21.6663 13.089C21.5959 11.9636 20.6265 11.1084 19.5011 11.1787C18.7715 11.2244 18.122 11.6566 17.7982 12.3119L15.7257 11.9007C15.7032 11.1156 15.3995 10.3649 14.8698 9.78499L17.6635 5.83849C18.9572 6.39956 20.4607 5.80565 21.0218 4.51204C21.5828 3.21844 20.9889 1.71484 19.6953 1.15382C18.4017 0.592804 16.8981 1.18666 16.3371 2.48027C15.9345 3.40848 16.118 4.48678 16.8049 5.22958L14.0443 9.12935C12.7236 8.38813 11.0671 8.64743 10.0361 9.75678L6.41853 6.94742C6.89619 5.92338 6.45322 4.70608 5.42922 4.22843C4.40518 3.75077 3.18788 4.19375 2.71023 5.21774C2.23257 6.24178 2.67555 7.45908 3.69954 7.93673C4.36387 8.24661 5.14324 8.17735 5.74257 7.75522L9.44861 10.6333C8.85328 11.9335 9.16853 13.4697 10.2279 14.4303L8.00796 17.5698C6.69741 16.8392 5.04267 17.3093 4.31203 18.6198C3.58139 19.9304 4.05146 21.5851 5.36202 22.3158C6.67257 23.0464 8.32731 22.5763 9.05795 21.2658C9.59366 20.3049 9.49703 19.1158 8.81318 18.254L11.1104 15.005C11.9108 15.3601 12.82 15.3801 13.6353 15.0605L16.3814 19.1172C15.5416 20.0737 15.6362 21.5298 16.5927 22.3696C17.5491 23.2093 19.0053 23.1147 19.845 22.1583C20.6848 21.2018 20.5902 19.7457 19.6337 18.906C18.9761 18.3285 18.0482 18.1734 17.2385 18.5056L14.5429 14.5237C15.0379 14.1113 15.4013 13.563 15.5881 12.9464ZM19.6276 12.2273C20.1736 12.2273 20.6162 12.6699 20.6162 13.2159C20.6162 13.7619 20.1736 14.2045 19.6276 14.2045C19.0816 14.2045 18.639 13.7619 18.639 13.2159C18.6395 12.6701 19.0818 12.2277 19.6276 12.2273ZM18.6725 2.00735C19.4974 2.0074 20.1662 2.67615 20.1661 3.50105C20.1661 4.32595 19.4973 4.9947 18.6724 4.99465C17.8475 4.99459 17.1788 4.3259 17.1788 3.501C17.1798 2.67642 17.848 2.00825 18.6725 2.00735ZM4.56807 7.07563C4.02236 7.07499 3.58012 6.63276 3.57949 6.08705C3.57949 5.54109 4.0221 5.09848 4.56807 5.09848C5.11403 5.09848 5.55664 5.54109 5.55664 6.08705C5.55664 6.63302 5.11409 7.07563 4.56807 7.07563ZM6.69183 21.5936C5.77673 21.5935 5.03493 20.8517 5.03498 19.9366C5.03504 19.0215 5.77683 18.2797 6.69194 18.2798C7.60699 18.2799 8.34879 19.0216 8.34879 19.9367C8.34779 20.8514 7.60651 21.5926 6.69183 21.5936ZM18.1128 19.3859C18.8061 19.3867 19.3679 19.9485 19.3687 20.6418C19.3687 21.3355 18.8064 21.8977 18.1128 21.8977C17.4191 21.8977 16.8569 21.3355 16.8569 20.6418C16.8569 19.9482 17.4192 19.3859 18.1128 19.3859ZM12.4393 14.2341C11.2049 14.2328 10.2046 13.2324 10.2032 11.998C10.2032 10.763 11.2044 9.76189 12.4393 9.76189C13.6743 9.76189 14.6755 10.763 14.6755 11.998C14.6755 13.233 13.6743 14.2341 12.4393 14.2341Z" fill="#525E75" stroke="#525E75" stroke-width="0.5"/>
</svg>
