<svg width="68" height="68" viewBox="0 0 68 68" fill="none" xmlns="http://www.w3.org/2000/svg">
<rect width="68" height="68" rx="4" fill="#56C16A"/>
<path d="M46.3166 35.485L49.364 36.0729C49.4711 37.7378 50.9461 39.003 52.6586 38.8989C54.371 38.7948 55.6723 37.3608 55.5653 35.6959C55.4582 34.031 53.9832 32.7658 52.2707 32.8699C51.1606 32.9374 50.1723 33.5768 49.6795 34.5463L46.5259 33.9379C46.4917 32.7765 46.0295 31.6658 45.2236 30.808L49.4746 24.9697C51.4431 25.7997 53.7309 24.9211 54.5846 23.0074C55.4383 21.0937 54.5346 18.8693 52.5662 18.0394C50.5978 17.2094 48.3099 18.0879 47.4562 20.0017C46.8437 21.3748 47.1229 22.97 48.1681 24.0689L43.9675 29.8381C41.9578 28.7415 39.4372 29.1251 37.8684 30.7663L32.3638 26.6102C33.0906 25.0953 32.4166 23.2945 30.8584 22.5878C29.3002 21.8812 27.448 22.5365 26.7211 24.0514C25.9943 25.5663 26.6684 27.3671 28.2265 28.0738C29.2374 28.5322 30.4233 28.4297 31.3353 27.8052L36.9745 32.0629C36.0686 33.9865 36.5483 36.259 38.1603 37.6801L34.7823 42.3247C32.7882 41.2438 30.2703 41.9392 29.1585 43.878C28.0467 45.8168 28.762 48.2647 30.7562 49.3456C32.7504 50.4265 35.2683 49.7311 36.38 47.7923C37.1952 46.3708 37.0482 44.6117 36.0076 43.3368L39.5031 38.5303C40.721 39.0556 42.1045 39.0852 43.345 38.6125L47.5237 44.6138C46.2458 46.0288 46.3898 48.1829 47.8451 49.4252C49.3005 50.6676 51.5162 50.5276 52.794 49.1127C54.0718 47.6977 53.9278 45.5436 52.4725 44.3013C51.4718 43.447 50.0598 43.2176 48.8278 43.709L44.7261 37.8182C45.4794 37.2082 46.0323 36.397 46.3166 35.485ZM52.4632 34.4211C53.2939 34.4211 53.9674 35.0759 53.9674 35.8836C53.9674 36.6913 53.2939 37.346 52.4632 37.346C51.6324 37.346 50.9589 36.6913 50.9589 35.8836C50.9596 35.0761 51.6327 34.4217 52.4632 34.4211ZM51.0099 19.302C52.2651 19.3021 53.2827 20.2914 53.2826 21.5118C53.2826 22.7321 52.265 23.7214 51.0098 23.7213C49.7546 23.7213 48.7371 22.732 48.7371 21.5117C48.7386 20.2918 49.7553 19.3034 51.0099 19.302ZM29.5481 26.7999C28.7177 26.7989 28.0448 26.1447 28.0438 25.3374C28.0438 24.5297 28.7173 23.875 29.5481 23.875C30.3788 23.875 31.0523 24.5297 31.0523 25.3374C31.0523 26.1451 30.3789 26.7999 29.5481 26.7999ZM32.7797 48.2773C31.3872 48.2772 30.2585 47.1798 30.2586 45.826C30.2586 44.4723 31.3874 43.3749 32.7798 43.375C34.1722 43.375 35.301 44.4724 35.301 45.8261C35.2994 47.1793 34.1715 48.2758 32.7797 48.2773ZM50.1582 45.0113C51.2132 45.0124 52.068 45.8436 52.0692 46.8692C52.0692 47.8954 51.2137 48.7272 50.1582 48.7272C49.1027 48.7272 48.2471 47.8954 48.2471 46.8692C48.2471 45.8431 49.1028 45.0113 50.1582 45.0113ZM41.5253 37.3899C39.647 37.3879 38.1248 35.908 38.1227 34.0819C38.1227 32.2549 39.6461 30.7738 41.5253 30.7738C43.4045 30.7738 44.9278 32.2549 44.9278 34.0819C44.9278 35.9089 43.4045 37.3899 41.5253 37.3899Z" fill="white" stroke="white" stroke-width="0.5"/>
</svg>
