<svg width="32" height="32" viewBox="0 0 32 32" fill="none" xmlns="http://www.w3.org/2000/svg">
<mask id="mask0_344_25892" style="mask-type:luminance" maskUnits="userSpaceOnUse" x="0" y="1" width="30" height="30">
<path d="M0 1H30V31H0V1Z" fill="white"/>
</mask>
<g mask="url(#mask0_344_25892)">
<path d="M28.526 7.00488V4.6749C28.526 3.46028 27.5413 2.47557 26.3267 2.47557H15" stroke="white" stroke-width="2" stroke-miterlimit="10" stroke-linecap="round" stroke-linejoin="round"/>
<path d="M28.526 16L28.526 13.012" stroke="white" stroke-width="2" stroke-miterlimit="10" stroke-linecap="round" stroke-linejoin="round"/>
<path d="M10.3995 20.7298C9.8057 21.1109 9.39688 21.7461 9.31469 22.4885C9.15412 23.9456 10.2907 25.1785 11.7151 25.1785C12.3813 25.1785 12.985 24.909 13.422 24.4725C13.5865 24.3081 13.8074 24.2129 14.0399 24.2129L14.1324 24.2128C14.6115 24.2125 15 24.6008 15 25.0799V29.5264H26.3264C27.5413 29.5264 28.526 28.5417 28.526 27.3268V16.0004H24.0795C23.6007 16.0004 23.2125 16.3886 23.2125 16.8674V16.9605C23.2125 17.193 23.3077 17.4139 23.4721 17.5784C23.9086 18.0154 24.1781 18.6191 24.1781 19.2852C24.1781 20.7097 22.9452 21.8463 21.4881 21.6857C20.7457 21.6035 20.1105 21.1947 19.7294 20.6008" stroke="white" stroke-width="2" stroke-miterlimit="10" stroke-linecap="round" stroke-linejoin="round"/>
<path d="M1.474 25.9966L1.474 27.326C1.474 28.5407 2.45871 29.5254 3.67332 29.5254H15" stroke="white" stroke-width="2" stroke-miterlimit="10" stroke-linecap="round" stroke-linejoin="round"/>
<path d="M1.47398 15.9995L1.47398 19.9844" stroke="white" stroke-width="2" stroke-miterlimit="10" stroke-linecap="round" stroke-linejoin="round"/>
<path d="M10.2705 11.3995C9.88953 10.8057 9.25432 10.3969 8.51184 10.3147C7.05478 10.1541 5.82193 11.2907 5.82193 12.7151C5.82193 13.3813 6.09136 13.985 6.52784 14.422C6.69228 14.5864 6.78753 14.8074 6.78753 15.0398V15.1329C6.78753 15.6119 6.39944 16 5.92045 16H1.47401V4.67353C1.47401 3.45859 2.45861 2.47399 3.67356 2.47399H15V6.92043C15 7.39942 15.3881 7.78751 15.867 7.78751H15.9601C16.1926 7.78751 16.4135 7.69226 16.578 7.52782C17.015 7.09134 17.6187 6.82186 18.2849 6.82186C19.7093 6.82186 20.8459 8.05476 20.6853 9.51182C20.6031 10.2543 20.1943 10.8895 19.6004 11.2705" stroke="white" stroke-width="2" stroke-miterlimit="10" stroke-linecap="round" stroke-linejoin="round"/>
<path d="M20.7636 15.8958C20.7636 19.0222 18.2292 21.5566 15.1028 21.5566C11.9765 21.5566 9.44208 19.0222 9.44208 15.8958C9.44208 12.7695 11.9765 10.235 15.1028 10.235C18.2292 10.235 20.7636 12.7695 20.7636 15.8958Z" stroke="white" stroke-width="1.5" stroke-miterlimit="10" stroke-linecap="round" stroke-linejoin="round"/>
</g>
<path d="M17 14.8002L14.6 17.2002L13 15.6002" stroke="white" stroke-width="2" stroke-miterlimit="10" stroke-linecap="round" stroke-linejoin="round"/>
<path d="M10.5963 11.3995C10.2153 10.8057 9.58005 10.3969 8.83757 10.3147C7.38051 10.1541 6.14766 11.2907 6.14766 12.7151C6.14766 13.3813 6.41709 13.985 6.85357 14.422C7.01801 14.5864 7.11326 14.8074 7.11326 15.0398V15.1329C7.11326 15.6119 6.72517 16 6.24618 16H1.79974V4.67353C1.79974 3.45859 2.78434 2.47399 3.99928 2.47399H15.3257V6.92043C15.3257 7.39942 15.7138 7.78751 16.1928 7.78751H16.2859C16.5183 7.78751 16.7393 7.69226 16.9037 7.52782C17.3407 7.09134 17.9444 6.82186 18.6106 6.82186C20.035 6.82186 21.1716 8.05476 21.011 9.51182C20.9288 10.2543 20.52 10.8895 19.9262 11.2705" fill="white" fill-opacity="0.2"/>
<path d="M11.1406 21.224C10.5468 21.605 10.1379 22.2402 10.0557 22.9827C9.89517 24.4397 11.0317 25.6726 12.4562 25.6726C13.1224 25.6726 13.7261 25.4032 14.1631 24.9667C14.3275 24.8022 14.5484 24.707 14.7809 24.707L14.8735 24.7069C15.3525 24.7067 15.7411 25.095 15.7411 25.574V30.0205H27.0675C28.2823 30.0205 29.2671 29.0358 29.2671 27.821V16.4945H24.8206C24.3417 16.4945 23.9535 16.8827 23.9535 17.3616V17.4547C23.9535 17.6871 24.0488 17.9081 24.2132 18.0725C24.6497 18.5095 24.9192 19.1132 24.9192 19.7794C24.9192 21.2038 23.6863 22.3404 22.2292 22.1798C21.4867 22.0976 20.8515 21.6888 20.4705 21.095" fill="white" fill-opacity="0.2"/>
</svg>
