<svg width="32" height="32" viewBox="0 0 32 32" fill="none" xmlns="http://www.w3.org/2000/svg">
<g clip-path="url(#clip0_343_25882)">
<path d="M13.7016 25.5783H18.3605L18.674 22.4861H19.57H20.7347L21.8098 22.7239L24.0497 21.8202L26.0208 21.5348L27.8127 20.6787V18.3005L29.067 16.2553V13.9723L30.5901 11.9747L31.0381 9.83434L29.6493 8.40796L28.3502 6.98056L27.2303 4.98326L26.0208 4.41217L24.4529 3.93654L24.0497 2.89015L21.4963 1.46387L20.4567 1.46368L16.7483 1.7852L13.9286 2.89015L10.3418 4.98326L8.10193 8.40796L7.69875 12.7836L9.08747 15.9701L12.3577 19.9659L13.388 23.7229L13.7016 25.5783Z" fill="white" fill-opacity="0.2"/>
<path d="M2.55004 15.0845C2.85381 15.0845 3.10007 14.8437 3.10007 14.5466C3.10007 14.2496 2.85381 14.0088 2.55004 14.0088C2.24626 14.0088 2 14.2496 2 14.5466C2 14.8437 2.24626 15.0845 2.55004 15.0845Z" fill="white"/>
<path d="M7.98384 3.31608C8.09124 3.42109 8.23205 3.47367 8.37272 3.47367C8.51339 3.47367 8.6542 3.42109 8.76159 3.31608L9.15047 2.93581L9.53934 3.31608C9.64674 3.42109 9.78755 3.47367 9.92822 3.47367C10.0689 3.47367 10.2097 3.42109 10.3171 3.31608C10.5319 3.10604 10.5319 2.76558 10.3171 2.55554L9.92822 2.17528L10.3172 1.79501C10.532 1.58498 10.532 1.24451 10.3172 1.03448C10.1024 0.824445 9.75427 0.824445 9.53948 1.03448L9.15061 1.41474L8.76173 1.03448C8.54694 0.824445 8.19877 0.824445 7.98398 1.03448C7.76919 1.24451 7.76919 1.58498 7.98398 1.79501L8.37285 2.17528L7.98398 2.55554C7.76891 2.76571 7.76891 3.10604 7.98384 3.31608Z" fill="white"/>
<path d="M3.65011 5.94043C2.74021 5.94043 2 6.66425 2 7.55401C2 8.44376 2.74021 9.16758 3.65011 9.16758C4.56001 9.16758 5.30022 8.44376 5.30022 7.55401C5.30022 6.66425 4.56015 5.94043 3.65011 5.94043ZM3.65011 8.09186C3.3469 8.09186 3.10007 7.8505 3.10007 7.55401C3.10007 7.25751 3.3469 7.01615 3.65011 7.01615C3.95332 7.01615 4.20015 7.25751 4.20015 7.55401C4.20015 7.8505 3.95332 8.09186 3.65011 8.09186Z" fill="white"/>
<path d="M21.8346 25.3307H19.2049V15.3269C19.2049 15.1968 19.157 15.0709 19.0694 14.971L16.1475 11.6364C15.9858 11.4513 15.717 11.3867 15.4815 11.4761L12.5596 12.5876C12.26 12.7018 12.1142 13.025 12.234 13.3102C12.3541 13.5949 12.6936 13.7333 12.9938 13.62L15.5214 12.6582L18.036 15.5279V25.3307H15.4064H14.7555C14.3089 25.3307 13.9455 24.9851 13.9455 24.5603V23.6705C13.9455 21.8594 13.1285 20.1369 11.6448 18.8206C9.36956 16.8022 8.19483 13.9456 8.42215 10.9842C8.77394 6.39534 12.6562 2.55455 17.4524 2.05005C17.8401 2.00906 18.2331 1.9885 18.6203 1.9885C18.943 1.9885 19.2046 1.73965 19.2046 1.43272C19.2046 1.1258 18.943 0.876953 18.6203 0.876953C18.1903 0.876953 17.7539 0.900018 17.324 0.945035C11.9772 1.50748 7.64888 5.78872 7.25648 10.9032C7.00344 14.202 8.31258 17.3842 10.8477 19.6335C12.0918 20.7372 12.7769 22.1709 12.7769 23.6705V24.5603C12.7769 25.3505 13.2927 26.0256 14.02 26.3042C13.9758 26.4363 13.9456 26.5743 13.9456 26.7202C13.9456 27.0342 14.0599 27.3208 14.2452 27.5538C14.0599 27.7868 13.9456 28.0735 13.9456 28.3875C13.9456 29.0584 14.4483 29.6196 15.1143 29.7489V30.3563C15.1143 31.2626 15.8897 32 16.8426 32H20.3985C21.3515 32 22.1268 31.2626 22.1268 30.3563V29.7489C22.7928 29.6198 23.2955 29.0584 23.2955 28.3875C23.2955 28.0735 23.1813 27.7868 22.9959 27.5538C23.1813 27.3208 23.2955 27.0342 23.2955 26.7202C23.2955 25.954 22.6402 25.3307 21.8346 25.3307ZM21.8346 26.4423C21.9959 26.4423 22.1268 26.5668 22.1268 26.7202C22.1268 26.8736 21.9959 26.9981 21.8346 26.9981H15.4065C15.2452 26.9981 15.1143 26.8736 15.1143 26.7202C15.1143 26.5668 15.2452 26.4423 15.4065 26.4423H21.8346ZM20.3985 30.8885H16.8426C16.5342 30.8885 16.2831 30.6496 16.2831 30.3563V29.7769H20.958V30.3563C20.958 30.6496 20.7071 30.8885 20.3985 30.8885ZM21.8346 28.6654H15.4065C15.2452 28.6654 15.1143 28.5409 15.1143 28.3875C15.1143 28.2341 15.2452 28.1096 15.4065 28.1096H21.8346C21.9959 28.1096 22.1268 28.2341 22.1268 28.3875C22.1268 28.5409 21.9959 28.6654 21.8346 28.6654Z" fill="white" stroke="white" stroke-width="0.5"/>
<path d="M11.3917 8.8081C10.7225 9.53945 10.1902 10.3684 9.80954 11.272C9.69404 11.5467 9.82783 11.8611 10.1088 11.9743C10.1772 12.0019 10.2482 12.0151 10.3179 12.0151C10.5341 12.0151 10.7392 11.8895 10.8268 11.6817C11.1599 10.891 11.6256 10.1657 12.2113 9.5256C12.4138 9.30427 12.3947 8.96408 12.1684 8.76615C11.9418 8.56754 11.5935 8.58704 11.3917 8.8081Z" fill="white"/>
<path d="M14.9069 6.46983C14.2438 6.70904 13.6094 7.02759 13.0212 7.41686C12.7696 7.58333 12.7037 7.91774 12.8741 8.16381C12.9804 8.31751 13.1537 8.4002 13.3301 8.4002C13.4361 8.4002 13.5434 8.37022 13.6378 8.30769C14.1524 7.96709 14.7072 7.68821 15.2871 7.47939C15.5723 7.37639 15.7182 7.06739 15.6131 6.78864C15.5077 6.51003 15.1915 6.3671 14.9069 6.46983Z" fill="white"/>
<path d="M29.8809 8.73116C29.3491 8.21118 28.6739 7.85297 27.9366 7.69269C28.0187 6.81275 27.7163 5.94613 27.0883 5.33189C27.0693 5.30419 27.0574 5.27326 27.0325 5.24866C26.3627 4.58615 25.4257 4.33672 24.5542 4.50009C24.5368 3.86313 24.2824 3.2567 23.8196 2.80409C22.8176 1.82424 20.8457 1.89914 19.7622 2.95926C19.6591 3.06011 19.6011 3.19699 19.6011 3.33953V22.7024C19.6011 22.9044 19.7169 23.0896 19.9008 23.1814C20.3695 23.4154 20.9375 23.5562 21.4988 23.5562C22.1539 23.5562 22.7998 23.3647 23.2679 22.9067C23.3716 22.8053 23.4669 22.6964 23.5531 22.5802C24.7123 23.0652 26.112 22.8021 27.0677 21.8674C27.9186 21.0356 28.2314 19.8331 27.9099 18.7593C27.983 18.6994 28.052 18.6374 28.1181 18.5728C29.0624 17.6497 29.3675 16.3084 28.9435 15.1533C29.2314 14.9778 29.4969 14.7717 29.737 14.5372C31.4139 12.8977 31.4783 10.293 29.8809 8.73116ZM28.2728 14.2785C27.7565 13.8968 27.137 13.6789 26.4781 13.675C25.6691 13.6821 24.9085 13.9731 24.3335 14.5286C24.1173 14.7374 24.1151 15.078 24.3286 15.2891C24.5425 15.5008 24.8905 15.5027 25.1064 15.2938C25.8518 14.5736 27.0495 14.575 27.798 15.2851C28.2233 16.0985 28.0462 17.1219 27.3404 17.8124C27.2287 17.9216 27.1008 18.0217 26.9496 18.118C26.7205 18.2643 26.6362 18.5529 26.7517 18.7953C27.1132 19.5545 26.9276 20.4835 26.2901 21.1069C25.6546 21.7282 24.7329 21.9053 23.9792 21.5875C23.9792 21.5864 23.9798 21.5856 23.9798 21.5846L23.984 20.8811C23.9916 19.7145 23.0268 18.7594 21.8335 18.752C21.8322 18.752 21.8311 18.752 21.8301 18.752C21.528 18.752 21.282 18.9904 21.2801 19.2865C21.2781 19.5835 21.5229 19.826 21.8267 19.8277C22.4136 19.8314 22.8878 20.3008 22.884 20.8745L22.8797 21.5783C22.8797 21.5828 22.8822 21.5865 22.8823 21.591C22.8719 21.6083 22.8544 21.6201 22.8459 21.6387C22.7572 21.8315 22.6377 22.0019 22.4906 22.1458C22.0845 22.5436 21.3228 22.5571 20.7013 22.3472V3.5821C21.388 3.06764 22.5053 3.04061 23.0418 3.56476C23.4207 3.93521 23.5468 4.49794 23.3797 5.03916C23.3003 5.10048 23.2169 5.1544 23.1433 5.22553C22.6206 5.73031 22.3304 6.40425 22.3258 7.12242C22.3213 7.8406 22.6033 8.51776 23.1194 9.02886C23.2271 9.13522 23.3688 9.18861 23.5107 9.18861C23.6504 9.18861 23.79 9.13684 23.8974 9.03343C24.1133 8.82461 24.1155 8.48401 23.902 8.27263C23.592 7.96619 23.4231 7.56011 23.4258 7.12915C23.4284 6.69819 23.6027 6.29399 23.9161 5.9909C24.1459 5.76877 24.4271 5.63027 24.7218 5.56734C25.3111 5.50212 25.8939 5.68513 26.3097 6.09175C26.8048 6.57582 26.9745 7.28647 26.7637 7.99322C26.7169 8.14946 26.7454 8.31808 26.8408 8.45147C26.9361 8.58513 27.0882 8.66917 27.2544 8.6802C27.9696 8.72793 28.6089 9.00842 29.103 9.49169C30.2712 10.6344 30.2068 12.5565 28.9593 13.7767C28.7567 13.9749 28.5217 14.1362 28.2728 14.2785Z" fill="white" stroke="white" stroke-width="0.5"/>
</g>
<defs>
<clipPath id="clip0_343_25882">
<rect width="32" height="32" fill="white"/>
</clipPath>
</defs>
</svg>
