<svg width="32" height="32" viewBox="0 0 32 32" fill="none" xmlns="http://www.w3.org/2000/svg">
<g clip-path="url(#clip0_342_25786)">
<rect x="1.92268" y="1.98438" width="26.861" height="24.9863" fill="white" fill-opacity="0.2"/>
<mask id="mask0_342_25786" style="mask-type:luminance" maskUnits="userSpaceOnUse" x="0" y="0" width="32" height="32">
<path d="M0 1.90735e-06H32V32H0V1.90735e-06Z" fill="white"/>
</mask>
<g mask="url(#mask0_342_25786)">
<path d="M1.625 9.70801H11.2988H29.7113" stroke="white" stroke-width="2" stroke-miterlimit="10" stroke-linecap="round" stroke-linejoin="round"/>
<path d="M6.77385 7.04785C7.58132 7.04785 8.24019 6.3821 8.24019 5.56404C8.24019 4.74598 7.58132 4.08023 6.77385 4.08023C5.96816 4.08023 5.30923 4.74598 5.30923 5.56404C5.30923 6.3821 5.96816 7.04785 6.77385 7.04785Z" stroke="white" stroke-miterlimit="10" stroke-linecap="round" stroke-linejoin="round"/>
<path d="M19.5027 4.08023H25.0186C25.8243 4.08023 26.4832 4.74779 26.4832 5.56404C26.4832 6.38035 25.8243 7.04785 25.0186 7.04785H19.5027C18.697 7.04785 18.0381 6.38035 18.0381 5.56404C18.0381 4.74779 18.697 4.08023 19.5027 4.08023Z" stroke="white" stroke-miterlimit="10" stroke-linecap="round" stroke-linejoin="round"/>
<path d="M12.0226 16.5148L10.7887 21.749" stroke="white" stroke-width="1.5" stroke-miterlimit="10" stroke-linecap="round" stroke-linejoin="round"/>
<path d="M14.8645 21.2764L16.6104 19.2896C16.6873 19.2029 16.6873 19.0612 16.6104 18.9745L14.8645 16.9877" stroke="white" stroke-width="1.5" stroke-miterlimit="10" stroke-linecap="round" stroke-linejoin="round"/>
<path d="M7.9469 21.2764L6.20094 19.2896C6.12399 19.2029 6.12399 19.0612 6.20094 18.9745L7.9469 16.9877" stroke="white" stroke-width="1.5" stroke-miterlimit="10" stroke-linecap="round" stroke-linejoin="round"/>
<path fill-rule="evenodd" clip-rule="evenodd" d="M25.9587 21.4529C24.4068 21.4529 23.149 22.7158 23.149 24.2739C23.149 25.8319 24.4068 27.0947 25.9587 27.0947C27.5105 27.0947 28.7684 25.8319 28.7684 24.2739C28.7684 22.7158 27.5105 21.4529 25.9587 21.4529ZM27.1439 19.2882L26.7642 18.2979H25.1531L24.7735 19.2882C24.248 19.4137 23.746 19.6229 23.286 19.9073L22.3194 19.4763L21.1802 20.6201L21.6094 21.5904C21.3261 22.0523 21.1178 22.5563 20.9927 23.0839L20.0064 23.4651V25.0825L20.9925 25.4636C21.1176 25.9913 21.3259 26.4955 21.6093 26.9574L21.1801 27.9275L22.3194 29.0713L23.286 28.6403C23.746 28.9247 24.2479 29.1338 24.7735 29.2594L25.1531 30.2497H26.7641L27.1437 29.2597C27.6694 29.1341 28.1715 28.9249 28.6315 28.6404L29.5978 29.0713L30.737 27.9275L30.3077 26.9571C30.591 26.4953 30.7993 25.9913 30.9244 25.4637L31.9108 25.0825V23.4651L30.9247 23.084C30.7996 22.5562 30.5913 22.0521 30.3078 21.5902L30.737 20.6201L29.5978 19.4763L28.6312 19.9073C28.1713 19.6229 27.6694 19.4137 27.1439 19.2882Z" fill="white"/>
<path d="M7.57082 27.9795H3.92148C2.65972 27.9795 1.62498 26.5428 1.62498 24.7891V4.56523C1.62498 2.80954 2.65787 1.37483 3.92148 1.37483H6.58158H27.4148C28.6784 1.37483 29.7113 2.81155 29.7113 4.56523V16.2829M18.0853 27.9795H13.0815" stroke="white" stroke-width="2" stroke-miterlimit="10" stroke-linecap="round" stroke-linejoin="round"/>
</g>
</g>
<defs>
<clipPath id="clip0_342_25786">
<rect width="32" height="32" fill="white"/>
</clipPath>
</defs>
</svg>
