<svg width="33" height="32" viewBox="0 0 33 32" fill="none" xmlns="http://www.w3.org/2000/svg">
<rect x="5.52472" y="6.23633" width="21.3908" height="21.9253" fill="white" fill-opacity="0.2"/>
<path d="M20.6147 14.5625L15.3412 19.8359L11.8256 16.3203" stroke="white" stroke-width="3" stroke-miterlimit="10" stroke-linecap="round" stroke-linejoin="round"/>
<path fill-rule="evenodd" clip-rule="evenodd" d="M19.277 4.48566L18.3201 2H14.2602L13.3034 4.48566C11.979 4.8006 10.714 5.32611 9.55482 6.04022L7.11888 4.95807L4.24803 7.82916L5.3297 10.2645C4.61584 11.4235 4.09074 12.6888 3.77547 14.0136L1.29 14.9703V19.0297L3.77514 19.9865C4.0904 21.3112 4.61534 22.5765 5.32937 23.7365L4.24786 26.1708L7.11888 29.0419L9.55482 27.9598C10.7141 28.6739 11.9789 29.1985 13.3034 29.5144L14.26 32H18.32L19.2765 29.5153C20.6013 29.1994 21.8667 28.6748 23.026 27.9607L25.4611 29.0419L28.332 26.1708L27.2501 23.7355C27.964 22.5765 28.4889 21.3112 28.8042 19.9865L31.29 19.0297V14.9703L28.8049 14.0136C28.4898 12.6888 27.9647 11.4235 27.2505 10.2636L28.332 7.82916L25.4611 4.95807L23.0252 6.04022C21.8662 5.32611 20.6013 4.8006 19.277 4.48566ZM16.29 27.3125C21.9854 27.3125 26.6025 22.6955 26.6025 17C26.6025 11.3045 21.9854 6.6875 16.29 6.6875C10.5946 6.6875 5.97749 11.3045 5.97749 17C5.97749 22.6955 10.5946 27.3125 16.29 27.3125Z" fill="white"/>
</svg>
