<svg width="32" height="32" viewBox="0 0 32 32" fill="none" xmlns="http://www.w3.org/2000/svg">
<g clip-path="url(#clip0_337_25708)">
<path d="M2.47725 3.97928C2.47725 3.97928 3.45549 3.98215 5.1558 3.98632C5.92258 3.9882 8.58112 2.8356 9.6181 2.83787C10.8012 2.84045 10.3333 3.0483 11.8026 3.05099C12.6713 3.05258 13.6505 4.0038 14.5999 4.00531C18.9635 4.01225 24.1029 4.01785 29.3177 4.01785L30.0522 21.3282H1.94785L2.47725 3.97928Z" fill="white" fill-opacity="0.2"/>
<path fill-rule="evenodd" clip-rule="evenodd" d="M16.4713 12.7288C16.8785 12.7288 17.2266 12.9825 17.3675 13.341L19.962 13.8879C20.2051 13.6458 20.5577 13.5521 20.8874 13.6397L23.8562 10.9739C23.8492 10.9273 23.8457 10.8797 23.8457 10.8311C23.8457 10.2971 24.2769 9.8642 24.8087 9.8642C25.3406 9.8642 25.7718 10.2971 25.7718 10.8311C25.7718 11.3652 25.3406 11.798 24.8087 11.798C24.7232 11.798 24.6403 11.7867 24.5614 11.7657L21.5927 14.4315C21.5996 14.4781 21.6031 14.5258 21.6031 14.5743C21.6031 15.1083 21.1719 15.5412 20.6401 15.5412C20.2329 15.5412 19.8847 15.2875 19.7438 14.929L17.1494 14.3821C16.8898 14.6406 16.5061 14.7289 16.1613 14.6113L13.2625 16.8775C13.2645 16.9029 13.2656 16.9286 13.2656 16.9545C13.2656 17.4885 12.8345 17.9215 12.3025 17.9215C11.7706 17.9215 11.3395 17.4886 11.3395 16.9545C11.3395 16.4205 11.7707 15.9877 12.3025 15.9877C12.4109 15.9877 12.5152 16.0057 12.6125 16.0389L15.5112 13.7727C15.5093 13.7473 15.5082 13.7216 15.5082 13.6957C15.5082 13.1617 15.9394 12.7288 16.4713 12.7288ZM9.86324 3.15507C8.31137 3.15507 7.05358 4.41793 7.05358 5.976C7.05358 7.53407 8.31137 8.79687 9.86324 8.79687C11.4151 8.79687 12.673 7.53407 12.673 5.976C12.673 4.41793 11.4151 3.15507 9.86324 3.15507ZM11.0484 0.990333L10.6688 0H9.05772L8.67804 0.990333C8.15253 1.11587 7.65054 1.32507 7.19057 1.60947L6.22396 1.17847L5.08477 2.3222L5.51399 3.29253C5.23072 3.7544 5.02235 4.2584 4.89725 4.78607L3.91099 5.1672V6.78467L4.89712 7.16573C5.02222 7.69347 5.23052 8.19767 5.51386 8.65953L5.08471 9.62967L6.22396 10.7734L7.19057 10.3424C7.6506 10.6268 8.15247 10.8359 8.67804 10.9615L9.05766 11.9519H10.6687L11.0482 10.9618C11.574 10.8363 12.0761 10.6271 12.5361 10.3425L13.5024 10.7734L14.6416 9.62967L14.2123 8.6592C14.4956 8.1974 14.7039 7.69347 14.829 7.1658L15.8154 6.7846V5.1672L14.8292 4.78613C14.7042 4.25833 14.4958 3.7542 14.2124 3.29233L14.6416 2.3222L13.5024 1.17847L12.5358 1.60947C12.0759 1.32507 11.574 1.11587 11.0484 0.990333ZM5.98033 32H26.0196C26.2391 32 26.418 31.8203 26.418 31.6V30.3872C26.418 29.5002 25.5133 28.7745 24.4076 28.7745H20.8191V25.0139H28.9758C30.2724 25.0139 31.3333 23.9488 31.3333 22.647V6.3636C31.3333 5.0618 30.2724 3.99667 28.9758 3.99667H15.744L16.8779 4.4348V5.97593H29.0349C29.2147 5.97593 29.3619 6.12367 29.3619 6.3042V21.0269H2.63807V6.3042C2.63807 6.1648 2.72578 6.045 2.84863 5.9976V4.43487L3.98257 3.99667H3.02419C1.72757 3.99667 0.666664 5.0618 0.666664 6.3636V22.647C0.666664 23.9489 1.72757 25.0139 3.02419 25.0139H11.1809V28.7745H7.59244C6.48665 28.7745 5.58199 29.5002 5.58199 30.3872V31.6C5.58192 31.8203 5.76088 32 5.98033 32Z" fill="white"/>
</g>
<defs>
<clipPath id="clip0_337_25708">
<rect width="32" height="32" fill="white"/>
</clipPath>
</defs>
</svg>
